<svg width="7" height="16" viewBox="0 0 7 16" fill="none" xmlns="http://www.w3.org/2000/svg">
<path d="M5.96874 9.54661H5.55624C5.50154 9.54661 5.44908 9.5957 5.4104 9.68307C5.37172 9.77045 5.34999 9.88896 5.34999 10.0125V13.2739H1.22499V3.95572H3.08124C3.13594 3.95572 3.1884 3.90663 3.22708 3.81926C3.26576 3.73188 3.28749 3.61338 3.28749 3.48981V2.55799C3.28749 2.43443 3.26576 2.31592 3.22708 2.22855C3.1884 2.14117 3.13594 2.09209 3.08124 2.09209H1.01874C0.854634 2.09209 0.697252 2.23935 0.581214 2.50147C0.465176 2.76359 0.399986 3.11911 0.399986 3.48981L0.399986 13.7398C0.399986 14.1105 0.465176 14.466 0.581214 14.7281C0.697252 14.9902 0.854634 15.1375 1.01874 15.1375H5.55624C5.72034 15.1375 5.87772 14.9902 5.99376 14.7281C6.1098 14.466 6.17499 14.1105 6.17499 13.7398V10.0125C6.17499 9.88896 6.15326 9.77045 6.11458 9.68307C6.0759 9.5957 6.02344 9.54661 5.96874 9.54661ZM6.69061 0.228455H5.04061C4.76514 0.228455 4.62747 0.982934 4.82147 1.42234L5.28205 2.46277L2.14022 9.55739C2.11138 9.62231 2.08849 9.69946 2.07288 9.78441C2.05726 9.86936 2.04923 9.96043 2.04923 10.0524C2.04923 10.1444 2.05726 10.2355 2.07288 10.3204C2.08849 10.4054 2.11138 10.4825 2.14022 10.5474L2.43245 11.2064C2.46119 11.2716 2.49535 11.3233 2.53295 11.3585C2.57056 11.3938 2.61087 11.412 2.65159 11.412C2.69231 11.412 2.73263 11.3938 2.77023 11.3585C2.80784 11.3233 2.84199 11.2716 2.87073 11.2064L6.01102 4.11063L6.47147 5.14961C6.66483 5.5864 6.99999 5.28064 6.99999 4.65458V0.927317C6.99999 0.741967 6.96739 0.564209 6.90937 0.433147C6.85135 0.302084 6.77266 0.228455 6.69061 0.228455Z" fill="white" fill-opacity="0.39"/>
</svg>
