<svg width="70" height="54" viewBox="0 0 70 54" fill="none" xmlns="http://www.w3.org/2000/svg">
<path d="M47.8509 5.47342C47.5096 5.47342 47.2821 5.5256 47.0524 5.5902V5.62995H47.0874C47.2471 5.96537 47.5096 6.22625 47.7131 6.53683C47.8727 6.88716 48.0084 7.24742 48.1571 7.59775L48.2031 7.54557C48.4765 7.32444 48.6143 6.9766 48.6143 6.4449C48.5006 6.28837 48.4765 6.1219 48.3759 5.97779C48.2621 5.75667 48.0106 5.64237 47.8509 5.47342ZM16.8268 49.1849H14.1273C14.0354 44.0095 13.762 39.1421 13.342 34.5755H13.3201L9.20748 49.1849H7.1446L3.06478 34.5755H3.02978C2.73446 38.9483 2.53977 43.8281 2.46101 49.1849H0C0.159692 42.6628 0.55783 36.5557 1.1966 30.861H4.54577L8.44183 44.32H8.4637L12.3948 30.861H15.5842C16.2908 37.5396 16.713 43.6467 16.8377 49.1849H16.8268ZM28.539 35.6637C27.4452 42.4442 25.9861 47.3761 24.1989 50.4421C22.7857 52.8099 21.2479 54 19.5722 54C19.1281 54 18.5812 53.8435 17.9206 53.5329V51.903C18.2509 51.9552 18.6271 51.9925 19.0493 51.9925C19.8347 51.9925 20.4625 51.7341 20.9416 51.2545C21.5104 50.6582 21.7969 49.9874 21.7969 49.2495C21.7969 48.7327 21.5804 47.6966 21.1253 46.1189L18.1743 35.6637H20.83L22.9498 43.4802C23.4289 45.2667 23.6345 46.4965 23.5426 47.2071C24.7151 43.6865 25.5245 39.8304 25.9818 35.6637H28.539ZM64.4961 49.1849H56.8177V30.861H59.4034V46.9338H64.4961V49.1849ZM54.8117 49.6271L51.8497 47.9699C52.1123 47.7239 52.3616 47.4531 52.5913 47.1425C53.8557 45.4729 54.4836 42.9759 54.4836 39.6888C54.4836 33.6189 52.3879 30.5927 48.1943 30.5927C46.1424 30.5927 44.5367 31.3554 43.386 32.8959C42.1326 34.5779 41.4938 37.0625 41.4938 40.3372C41.4938 43.5597 42.0516 45.9151 43.1695 47.4283C44.1954 48.7749 45.7333 49.4607 47.7962 49.4607C48.5596 49.4607 49.2662 49.3563 49.905 49.1377L53.7682 51.6993L54.827 49.6296L54.8117 49.6271ZM45.2083 45.5101C44.5476 44.32 44.2283 42.4044 44.2283 39.7633C44.2283 35.1444 45.4599 32.8412 47.9318 32.8412C49.2203 32.8412 50.1763 33.3978 50.78 34.4984C51.4297 35.701 51.7601 37.5918 51.7601 40.2055C51.7601 44.8517 50.5175 47.1947 48.0565 47.1947C46.7571 47.1947 45.8121 46.6382 45.1974 45.5375L45.2083 45.5101ZM40.376 44.1138C40.376 45.6667 39.875 46.9487 38.86 47.9301C37.8581 48.9265 36.5236 49.4308 34.8261 49.4308C33.2423 49.4308 31.7263 48.8619 30.2344 47.7214L30.93 46.1437C32.2054 46.8692 33.356 47.232 34.4061 47.232C35.3752 47.232 36.1386 46.986 36.6855 46.5065C37.2324 46.0145 37.5627 45.3288 37.5627 44.4617C37.5627 43.3734 36.8912 42.4417 35.6705 41.6665C34.5417 40.9559 32.2754 39.4925 32.2754 39.4925C31.0438 38.4713 30.44 37.383 30.44 35.5842C30.44 34.0959 30.895 32.9058 31.8072 31.9989C32.7304 31.0672 33.9029 30.615 35.362 30.615C36.854 30.615 38.2212 31.0672 39.4528 31.9741L38.8272 33.5518C37.7793 33.0474 36.7424 32.789 35.7274 32.789C34.8961 32.789 34.2573 33.0226 33.8132 33.4748C33.3692 33.927 33.0957 34.4959 33.0957 35.209C33.0957 36.2973 33.7804 37.229 35.0317 38.029C36.1824 38.7396 38.4946 40.2428 38.4946 40.2428C39.7591 41.2516 40.3869 42.3398 40.3869 44.1113L40.376 44.1138ZM67.7337 24.7166C66.1718 24.6768 64.9642 24.8582 63.9514 25.3502C63.667 25.4794 63.1989 25.4794 63.1529 25.8943C63.3126 26.0757 63.3345 26.3614 63.4723 26.6049C63.7107 27.0447 64.1111 27.641 64.4873 27.9515C64.8986 28.3143 65.3077 28.677 65.7299 28.9876C66.4933 29.5193 67.3487 29.8299 68.099 30.3591C68.5212 30.6697 68.9543 31.0697 69.3744 31.3952C69.5909 31.5641 69.7266 31.8623 70 31.9641V31.8996C69.8622 31.7058 69.8294 31.42 69.6916 31.189C69.4969 30.9678 69.3044 30.774 69.1097 30.5554C68.5409 29.6883 67.8452 28.9379 67.0818 28.3168C66.4561 27.8372 65.0889 27.1639 64.8373 26.349L64.8023 26.2968C65.2245 26.257 65.7255 26.0757 66.1346 25.9465C66.7952 25.7527 67.4099 25.7899 68.0946 25.5961C68.4031 25.5067 68.7093 25.4023 69.0287 25.2856V25.0918C68.6765 24.6917 68.414 24.1476 68.0487 23.7724C67.0577 22.801 65.9639 21.8444 64.8352 21.0543C64.2204 20.6021 63.446 20.3164 62.7963 19.9412C62.5688 19.812 62.1707 19.7474 62.0438 19.5263C61.6916 19.0343 61.486 18.4008 61.2344 17.8169C60.6766 16.5994 60.1297 15.2553 59.6397 13.9608C59.2875 13.0937 59.0819 12.239 58.6487 11.4364C56.6427 7.6698 54.4551 5.39392 51.106 3.1553C50.3885 2.68819 49.5222 2.4944 48.61 2.24842C48.1199 2.22357 47.6409 2.18382 47.1509 2.15898C46.8315 2.00245 46.5252 1.59 46.2518 1.3813C45.1361 0.578775 42.2638 -1.14305 41.4544 1.13532C40.9294 2.58384 42.2288 3.99509 42.686 4.72059C43.0163 5.23739 43.4385 5.80884 43.677 6.37781C43.8148 6.76541 43.8476 7.16791 43.9854 7.56793C44.2939 8.53941 44.5892 9.62518 45.0005 10.5321C45.217 10.9992 45.4445 11.4886 45.718 11.9035C45.8777 12.1495 46.1511 12.2539 46.208 12.6539C45.9346 13.1061 45.9127 13.767 45.7639 14.3111C45.0573 16.8206 45.3308 19.9139 46.3218 21.7649C46.6411 22.3214 47.3805 23.5389 48.3737 23.0718C49.2509 22.6718 49.0584 21.4146 49.3078 20.3015C49.3647 20.0307 49.3297 19.8617 49.4456 19.6803V19.7325C49.73 20.3536 50.0034 20.95 50.255 21.5711C50.8478 22.6594 51.9066 23.7849 52.7838 24.5352C53.252 24.9352 53.6151 25.6235 54.197 25.867V25.8024H54.1511C54.0264 25.6086 53.8667 25.5166 53.707 25.3626C53.3548 24.9626 52.9654 24.4706 52.681 24.0308C51.8716 22.7885 51.1432 21.4171 50.5044 20.0058C50.185 19.3076 49.9116 18.5573 49.6622 17.8715C49.5484 17.6131 49.5484 17.2106 49.3537 17.0814C49.0584 17.561 48.6253 17.9734 48.4196 18.5821C48.0434 19.5263 48.0084 20.704 47.8618 21.9214C47.794 21.9463 47.8268 21.9214 47.794 21.9736C47.1684 21.7922 46.9518 21.0667 46.7221 20.4456C46.1293 18.8679 46.0374 16.3435 46.5405 14.5322C46.6783 14.0651 47.258 12.6042 47.0305 12.1644C46.9058 11.7371 46.5186 11.4911 46.313 11.1557C46.0505 10.7408 45.788 10.2115 45.6064 9.74444C45.1383 8.50214 44.9108 7.13065 44.3989 5.88835C44.1714 5.31938 43.7601 4.72307 43.4298 4.19386C43.0535 3.59755 42.6445 3.17269 42.3579 2.47203C42.2551 2.22606 42.1194 1.82604 42.2791 1.56516C42.3141 1.38378 42.3929 1.31918 42.5526 1.26701C42.8042 1.02103 43.5326 1.33161 43.7842 1.47323C44.5017 1.79623 45.1055 2.1068 45.7092 2.5739C45.9827 2.79503 46.278 3.20747 46.6324 3.32425H47.0437C47.6693 3.48078 48.3649 3.364 48.9468 3.57022C49.9837 3.9454 50.9178 4.48952 51.7601 5.08334C54.313 6.93436 56.4086 9.54815 57.8327 12.6663C58.0712 13.1707 58.174 13.6378 58.3906 14.167C58.7887 15.2677 59.3028 16.3659 59.7119 17.4144C60.1209 18.4629 60.5103 19.5238 61.101 20.3909C61.3963 20.858 62.5601 21.1015 63.0938 21.3351C63.481 21.5413 64.0848 21.7227 64.4261 21.9562C65.0977 22.4233 65.7583 22.9525 66.3861 23.4693C66.7055 23.7153 67.6746 24.2719 67.7315 24.7116L67.7337 24.7166Z" fill="white" fill-opacity="0.1"/>
</svg>
