<svg width="49" height="55" viewBox="0 0 49 55" fill="none" xmlns="http://www.w3.org/2000/svg">
<path d="M4.38636 50.5826L0 10.809H48.1981L43.8074 50.5765L24.0696 55L4.38636 50.5826Z" fill="white" fill-opacity="0.05"/>
<path d="M24.0991 51.6187L40.0477 48.0439L43.8004 14.0615H24.0991V51.6187Z" fill="white" fill-opacity="0.05"/>
<path d="M24.0991 28.8129H16.1144L15.5636 23.8171H24.0991V18.939H8.96908L9.11305 20.248L10.5964 33.6905H24.0991V28.8129ZM24.0991 41.4811L24.0724 41.4869L17.3529 40.0196L16.9232 36.1295H10.8659L11.7112 43.7888L24.0713 46.5629L24.0991 46.5563V41.4811Z" fill="white" fill-opacity="0.05"/>
<path d="M4.4845 0H7.55053V2.44962H10.3559V0H13.4225V7.41675H10.3559V4.93318H7.55108V7.41675H4.4845V0ZM17.4543 2.45976H14.7548V0H23.2215V2.45976H20.5209V7.41675H17.4543V2.45976ZM24.5653 0H27.7622L29.7294 2.60613L31.6943 0H34.8929V7.41675H31.8383V3.74056L29.7294 6.37755H29.6759L27.5654 3.74056V7.41675H24.5648V0H24.5653ZM36.4193 0H39.4865V4.96537H43.7986V7.41719H36.4193V0Z" fill="white" fill-opacity="0.05"/>
<path d="M24.0784 28.8129V33.6905H31.5084L30.8082 40.0169L24.0784 41.4855V46.5602L36.4483 43.7888L36.5388 42.9643L37.9568 30.1223L38.104 28.8129H36.4778H24.0784ZM24.0784 18.939V23.8171H38.6532L38.7737 22.7206L39.0491 20.248L39.1937 18.939H24.0784Z" fill="white" fill-opacity="0.05"/>
</svg>
