<svg width="20" height="20" viewBox="0 0 20 20" fill="none" xmlns="http://www.w3.org/2000/svg">
<path d="M12.625 7.00101C11.9863 6.99881 11.3534 7.12258 10.7626 7.36524C10.1718 7.60789 9.63461 7.96466 9.18181 8.41513C8.72902 8.8656 8.36949 9.40094 8.1238 9.99051C7.87812 10.5801 7.7511 11.2123 7.75 11.851V16.751C7.75 16.9499 7.82902 17.1407 7.96967 17.2813C8.11033 17.422 8.30109 17.501 8.5 17.501H10.25C10.4489 17.501 10.6397 17.422 10.7803 17.2813C10.921 17.1407 11 16.9499 11 16.751V11.851C10.9998 11.6238 11.0476 11.3992 11.14 11.1917C11.2325 10.9842 11.3677 10.7985 11.5367 10.6468C11.7058 10.495 11.9049 10.3806 12.1211 10.311C12.3374 10.2414 12.5658 10.2181 12.7917 10.2427C13.1967 10.2937 13.5689 10.4916 13.8377 10.7988C14.1065 11.106 14.2532 11.5011 14.25 11.9093V16.751C14.25 16.9499 14.329 17.1407 14.4697 17.2813C14.6103 17.422 14.8011 17.501 15 17.501H16.75C16.9489 17.501 17.1397 17.422 17.2803 17.2813C17.421 17.1407 17.5 16.9499 17.5 16.751V11.851C17.4989 11.2123 17.3719 10.5801 17.1262 9.99051C16.8805 9.40094 16.521 8.8656 16.0682 8.41513C15.6154 7.96466 15.0782 7.60789 14.4874 7.36524C13.8966 7.12258 13.2637 6.99881 12.625 7.00101Z" fill="white"/>
<path d="M5.5 7.75122H3.25C2.83579 7.75122 2.5 8.08701 2.5 8.50122V16.7512C2.5 17.1654 2.83579 17.5012 3.25 17.5012H5.5C5.91421 17.5012 6.25 17.1654 6.25 16.7512V8.50122C6.25 8.08701 5.91421 7.75122 5.5 7.75122Z" fill="white"/>
<path d="M4.375 6.25122C5.41053 6.25122 6.25 5.41175 6.25 4.37622C6.25 3.34069 5.41053 2.50122 4.375 2.50122C3.33947 2.50122 2.5 3.34069 2.5 4.37622C2.5 5.41175 3.33947 6.25122 4.375 6.25122Z" fill="white"/>
</svg>
