<svg width="23" height="23" viewBox="0 0 23 23" fill="none" xmlns="http://www.w3.org/2000/svg">
<path d="M3.08626 5.82107C3.68307 5.40103 4.58273 5.48159 5.11858 5.92719L4.504 5.02767C4.00941 4.31738 4.18655 3.54892 4.89256 3.05025C5.59857 2.55349 7.59914 3.88904 7.59914 3.88904C7.10011 3.17172 7.19344 2.2626 7.9058 1.75945C8.61816 1.25823 9.60099 1.43148 10.1 2.15008L16.7157 11.5609L15.8725 19.7922L8.83593 17.208L2.69834 8.04463C2.19486 7.32283 2.36883 6.32741 3.08626 5.82107Z" fill="#EF9645"/>
<path d="M1.7111 11.0563C1.7111 11.0563 0.992389 10.0014 2.04061 9.27833C3.08756 8.55525 3.80564 9.6095 3.80564 9.6095L7.13951 14.5054C7.25442 14.3123 7.38013 14.1218 7.52045 13.9339L2.89328 7.1398C2.89328 7.1398 2.17521 6.08555 3.2228 5.36248C4.26975 4.63941 4.98782 5.69365 4.98782 5.69365L9.34007 12.0849C9.50197 11.952 9.66768 11.8184 9.83847 11.6873L4.79291 4.27691C4.79291 4.27691 4.07484 3.22267 5.12242 2.4996C6.16938 1.77653 6.88745 2.83077 6.88745 2.83077L11.933 10.2399C12.1184 10.1254 12.3019 10.0263 12.486 9.92148L7.76996 2.99635C7.76996 2.99635 7.05189 1.94211 8.09884 1.21904C9.14579 0.495965 9.86387 1.55021 9.86387 1.55021L14.8504 8.873L15.6085 9.9867C12.467 12.1566 12.1679 16.2386 13.9628 18.8745C14.3215 19.402 14.8453 19.0408 14.8453 19.0408C12.6911 15.8768 13.3488 12.3215 16.491 10.1523L15.5646 5.48395C15.5646 5.48395 15.2186 4.2539 16.4395 3.90483C17.6611 3.5564 18.0077 4.78645 18.0077 4.78645L19.0776 7.98562C19.5017 9.25403 19.9531 10.518 20.5505 11.7135C22.2375 15.0891 21.2299 19.2844 18.049 21.4817C14.5793 23.8772 9.83593 22.9867 7.45632 19.4934L1.7111 11.0563Z" fill="#452E21"/>
<path d="M7.61881 20.4583C5.0792 20.4583 2.51293 17.8742 2.51293 15.3169C2.51293 14.9633 2.25579 14.6776 1.90469 14.6776C1.55359 14.6776 1.24313 14.9633 1.24313 15.3169C1.24313 19.1528 3.8094 21.7369 7.61881 21.7369C7.96991 21.7369 8.25371 21.4243 8.25371 21.0708C8.25371 20.7172 7.96991 20.4583 7.61881 20.4583Z" fill="#EF9645"/>
<path d="M4.44431 21.7101C2.53961 21.7101 1.2698 20.4314 1.2698 18.5135C1.2698 18.1599 0.986002 17.8742 0.634901 17.8742C0.283801 17.8742 0 18.1599 0 18.5135C0 21.0708 1.9047 22.9887 4.44431 22.9887C4.79541 22.9887 5.07921 22.703 5.07921 22.3494C5.07921 21.9959 4.79541 21.7101 4.44431 21.7101ZM15.2376 1.25179C14.8872 1.25179 14.6027 1.53821 14.6027 1.89111C14.6027 2.24402 14.8872 2.53044 15.2376 2.53044C17.7772 2.53044 20.3168 4.82496 20.3168 7.64501C20.3168 7.99792 20.6013 8.28433 20.9517 8.28433C21.3022 8.28433 21.5867 7.99792 21.5867 7.64501C21.5867 4.11979 19.047 1.25179 15.2376 1.25179Z" fill="#EF9645"/>
<path d="M18.4122 0C18.0617 0 17.7773 0.259565 17.7773 0.61247C17.7773 0.965376 18.0617 1.27864 18.4122 1.27864C20.3169 1.27864 21.56 2.70113 21.56 4.4484C21.56 4.80131 21.8705 5.08772 22.2216 5.08772C22.5727 5.08772 22.8298 4.80131 22.8298 4.4484C22.8298 1.99532 20.9518 0 18.4122 0Z" fill="#EF9645"/>
</svg>
