<svg width="20" height="20" viewBox="0 0 20 20" fill="none" xmlns="http://www.w3.org/2000/svg">
<path d="M10 0.834698C7.59455 0.810254 5.27781 1.74187 3.55894 3.4248C1.84007 5.10773 0.859712 7.40427 0.833328 9.8097C0.842597 11.7107 1.45411 13.5598 2.58005 15.0915C3.70598 16.6232 5.28839 17.7586 7.1 18.3347C7.55833 18.418 7.725 18.143 7.725 17.9014C7.725 17.6597 7.725 17.1264 7.725 16.3764C5.175 16.918 4.63333 15.1764 4.63333 15.1764C4.46358 14.6296 4.10269 14.1622 3.61666 13.8597C2.78333 13.3097 3.68333 13.318 3.68333 13.318C3.97137 13.3565 4.24696 13.4598 4.48942 13.62C4.73188 13.7802 4.93493 13.9932 5.08333 14.243C5.34194 14.6915 5.76627 15.0204 6.265 15.1591C6.76374 15.2979 7.29699 15.2352 7.75 14.9847C7.79658 14.5283 8.00324 14.1032 8.33333 13.7847C6.29999 13.5597 4.16666 12.793 4.16666 9.35136C4.14848 8.4536 4.4802 7.58396 5.09166 6.92636C4.81318 6.15559 4.84607 5.30662 5.18333 4.5597C5.18333 4.5597 5.95833 4.31803 7.68333 5.47636C9.18491 5.07623 10.7651 5.07623 12.2667 5.47636C14.0167 4.31803 14.7667 4.5597 14.7667 4.5597C15.1039 5.30662 15.1368 6.15559 14.8583 6.92636C15.484 7.5719 15.8337 8.43571 15.8333 9.3347C15.8333 12.7847 13.6833 13.543 11.6667 13.768C11.8875 13.9824 12.0581 14.2431 12.1661 14.5313C12.2742 14.8194 12.3171 15.128 12.2917 15.4347V17.893C12.2917 17.893 12.4583 18.418 12.9167 18.3264C14.7231 17.7467 16.3002 16.611 17.4227 15.0815C18.5451 13.552 19.1555 11.7069 19.1667 9.8097C19.1403 7.40427 18.1599 5.10773 16.4411 3.4248C14.7222 1.74187 12.4054 0.810254 10 0.834698Z" fill="white"/>
</svg>
