<svg width="55" height="55" viewBox="0 0 55 55" fill="none" xmlns="http://www.w3.org/2000/svg">
<path d="M35.0094 35.4281C32.7307 35.6297 30.4352 35.2504 28.381 34.3329C27.9157 33.9951 27.5317 33.5743 27.2526 33.0965C26.9735 32.6186 26.8053 32.094 26.7583 31.5549C26.7574 31.4742 26.7388 31.3945 26.7037 31.3204C26.6686 31.2463 26.6176 31.1792 26.5537 31.1231C26.4899 31.067 26.4144 31.0229 26.3316 30.9935C26.2488 30.964 26.1604 30.9497 26.0716 30.9515C25.1122 30.9409 24.1529 30.9432 23.1937 30.9503C23.026 30.9348 22.8584 30.9799 22.7272 31.0758C22.5959 31.1717 22.5116 31.3106 22.4925 31.4626C22.4378 32.4084 22.614 33.3535 23.0085 34.2304C23.403 35.1073 24.0061 35.8943 24.7746 36.5351C26.7147 37.9089 29.0704 38.713 31.5273 38.8402C34.0872 39.1096 36.6781 39.0098 39.2037 38.5444C41.143 38.2161 42.9209 37.3466 44.2895 36.0572C45.046 35.2108 45.553 34.2037 45.763 33.1306C45.9729 32.0575 45.8788 30.9536 45.4895 29.9226C45.1626 29.1958 44.6565 28.5466 44.0102 28.0248C43.3638 27.5031 42.5944 27.1226 41.7608 26.9126C37.8795 25.6767 33.6868 25.7702 29.7299 24.8311C29.043 24.6349 28.2036 24.4219 27.8975 23.7619C27.7205 23.2975 27.7084 22.7944 27.8629 22.3234C28.0174 21.8525 28.3307 21.4373 28.7587 21.1363C30.0011 20.4919 31.4158 20.1723 32.846 20.2128C34.7871 20.0469 36.7439 20.301 38.5559 20.9541C39.1002 21.2446 39.5684 21.6392 39.9278 22.1104C40.2872 22.5815 40.5292 23.1181 40.6371 23.6827C40.6423 23.8493 40.7159 24.0081 40.8435 24.128C40.9711 24.2479 41.1435 24.3202 41.3269 24.3307C42.2794 24.3484 43.2323 24.3354 44.1849 24.3366C44.3501 24.3545 44.5169 24.3178 44.6546 24.233C44.7923 24.1483 44.8916 24.0213 44.9344 23.8754C44.9429 22.7094 44.6155 21.5616 43.9848 20.5458C43.354 19.53 42.4417 18.6813 41.3383 18.0838C38.2927 16.8083 34.9122 16.339 31.5857 16.7297C29.1484 16.8203 26.8198 17.6692 24.991 19.134C24.1514 19.9552 23.5828 20.9738 23.3501 22.0739C23.1173 23.174 23.2298 24.3113 23.6746 25.3563C24.0208 26.0563 24.5302 26.6798 25.1676 27.1839C25.8051 27.688 26.5554 28.0606 27.3668 28.2762C31.2352 29.5441 35.4749 29.1372 39.3808 30.2584C40.142 30.4928 41.0283 30.8511 41.2615 31.6199C41.3868 32.0806 41.3774 32.563 41.234 33.0194C41.0907 33.4758 40.8185 33.8902 40.4444 34.2218C38.8199 35.1376 36.9163 35.5601 35.0094 35.4281ZM52.6434 12.2032C45.0907 8.32756 37.5363 4.45538 29.9802 0.586693C29.2221 0.201988 28.3679 0 27.4993 0C26.6307 0 25.7765 0.201988 25.0184 0.586693C17.4917 4.44368 9.96459 8.30048 2.43709 12.1571C1.7048 12.5193 1.09264 13.0527 0.664102 13.702C0.235568 14.3513 0.00627218 15.0928 0 15.8496V39.1538C0.0120528 39.9244 0.253696 40.6777 0.699301 41.3337C1.14491 41.9897 1.77786 42.5241 2.53104 42.8801C4.6933 43.9481 6.7941 45.1249 8.99555 46.1219C10.2662 46.7383 11.6774 47.0779 13.1177 47.1139C14.5579 47.1498 15.9876 46.881 17.2936 46.3289C18.2708 45.7734 19.066 44.9902 19.5962 44.061C20.1265 43.1318 20.3724 42.0905 20.3084 41.0457C20.3252 33.3548 20.3109 25.6635 20.3148 17.9724C20.3296 17.8883 20.3246 17.8023 20.3002 17.7201C20.2758 17.6379 20.2325 17.5613 20.1732 17.4953C20.1139 17.4293 20.0399 17.3755 19.9561 17.3372C19.8722 17.299 19.7804 17.2773 19.6867 17.2735C18.7249 17.2594 17.7616 17.2652 16.7998 17.2711C16.7107 17.2639 16.621 17.2738 16.5364 17.3002C16.4519 17.3266 16.3745 17.369 16.3092 17.4245C16.244 17.48 16.1924 17.5473 16.1579 17.6222C16.1233 17.697 16.1066 17.7776 16.1088 17.8588C16.0959 25.5004 16.1114 33.1441 16.1011 40.7869C16.1033 41.3144 15.9276 41.83 15.5978 42.2644C15.2679 42.6987 14.7995 43.0312 14.2555 43.2172C13.629 43.3852 12.9706 43.4314 12.3231 43.3528C11.6756 43.2741 11.0537 43.0724 10.498 42.7608C8.49478 41.7341 6.49165 40.7076 4.48856 39.6811C4.35583 39.624 4.24557 39.5314 4.17262 39.4157C4.09967 39.3 4.06753 39.1668 4.08054 39.0341C4.08054 31.3453 4.08054 23.657 4.08054 15.969C4.06661 15.8194 4.10512 15.6697 4.19057 15.5412C4.27601 15.4127 4.40403 15.312 4.55632 15.2534C12.0583 11.4192 19.5589 7.58097 27.0581 3.7387C27.1883 3.65798 27.3424 3.6149 27.5002 3.61511C27.6579 3.61532 27.8118 3.65882 27.9418 3.73989C35.4436 7.57531 42.945 11.4121 50.4461 15.2502C50.5976 15.3103 50.7247 15.412 50.8095 15.5409C50.8944 15.6697 50.9327 15.8195 50.9192 15.9691C50.9179 23.6564 50.9171 31.3444 50.9166 39.033C50.9299 39.1663 50.8985 39.3002 50.8267 39.4171C50.7548 39.534 50.6458 39.6285 50.5138 39.6883C43.1267 43.4788 35.7356 47.2638 28.3406 51.0433C27.9873 51.2219 27.5691 51.5093 27.1559 51.2929C25.2192 50.2981 23.3061 49.2647 21.3758 48.2604C21.2771 48.1919 21.1581 48.1517 21.0341 48.145C20.9101 48.1382 20.7867 48.1652 20.6797 48.2225C19.8295 48.6746 18.9346 49.0535 18.0066 49.3544C17.5883 49.5082 17.0735 49.552 16.7855 49.9041C17.1526 50.2666 17.5973 50.5573 18.0925 50.7583C20.35 51.9445 22.6087 53.1296 24.8686 54.3137C25.616 54.7396 26.4756 54.976 27.3578 54.9983C28.2401 55.0205 29.1128 54.8278 29.8852 54.4402C37.413 50.5883 44.9405 46.7347 52.4677 42.8793C53.2202 42.5227 53.8527 41.9883 54.2984 41.3326C54.7441 40.6769 54.9865 39.9241 55 39.1538V15.8496C54.9937 15.1077 54.7727 14.3804 54.3591 13.7404C53.9455 13.1005 53.3538 12.5704 52.6434 12.2032Z" fill="white" fill-opacity="0.1"/>
</svg>
