<svg width="30" height="22" viewBox="0 0 30 22" fill="none" xmlns="http://www.w3.org/2000/svg">
<mask id="mask0_138_82" style="mask-type:luminance" maskUnits="userSpaceOnUse" x="0" y="0" width="30" height="22">
<path d="M0 0H30V22H0V0Z" fill="white"/>
</mask>
<g mask="url(#mask0_138_82)">
<path fill-rule="evenodd" clip-rule="evenodd" d="M0 0H30V22H0V0Z" fill="#F7FCFF"/>
<path fill-rule="evenodd" clip-rule="evenodd" d="M0 13.4445V15.2778H30V13.4445H0Z" fill="#E31D1C"/>
<path fill-rule="evenodd" clip-rule="evenodd" d="M0 16.8055V18.6388H30V16.8055H0Z" fill="#E31D1C"/>
<path fill-rule="evenodd" clip-rule="evenodd" d="M0 6.72214V8.55547H30V6.72214H0Z" fill="#E31D1C"/>
<path fill-rule="evenodd" clip-rule="evenodd" d="M0 20.1667V22H30V20.1667H0Z" fill="#E31D1C"/>
<path fill-rule="evenodd" clip-rule="evenodd" d="M0 10.0833V11.9167H30V10.0833H0Z" fill="#E31D1C"/>
<path fill-rule="evenodd" clip-rule="evenodd" d="M0 0V1.83333H30V0H0Z" fill="#E31D1C"/>
<path fill-rule="evenodd" clip-rule="evenodd" d="M0 3.36118V5.19451H30V3.36118H0Z" fill="#E31D1C"/>
<path d="M0 0H18.75V11.9167H0V0Z" fill="#2E42A5"/>
<path fill-rule="evenodd" clip-rule="evenodd" d="M1.6143 2.69382L0.933785 3.16029L1.16353 2.33015L0.559113 1.80407H1.34857L1.61334 1.12659L1.92382 1.80407H2.59681L2.06802 2.33015L2.27274 3.16029L1.6143 2.69382ZM5.3643 2.69382L4.68379 3.16029L4.91353 2.33015L4.30912 1.80407H5.09857L5.36334 1.12659L5.67382 1.80407H6.34681L5.81802 2.33015L6.02274 3.16029L5.3643 2.69382ZM8.43379 3.16029L9.1143 2.69382L9.77274 3.16029L9.56799 2.33015L10.0968 1.80407H9.4238L9.11334 1.12659L8.84857 1.80407H8.05912L8.66353 2.33015L8.43379 3.16029ZM12.8643 2.69382L12.1838 3.16029L12.4136 2.33015L11.8091 1.80407H12.5985L12.8634 1.12659L13.1738 1.80407H13.8468L13.318 2.33015L13.5227 3.16029L12.8643 2.69382ZM0.933785 6.82696L1.6143 6.36049L2.27274 6.82696L2.06802 5.99682L2.59681 5.47073H1.92382L1.61334 4.79325L1.34857 5.47073H0.559113L1.16353 5.99682L0.933785 6.82696ZM5.3643 6.36049L4.68379 6.82696L4.91353 5.99682L4.30912 5.47073H5.09857L5.36334 4.79325L5.67382 5.47073H6.34681L5.81802 5.99682L6.02274 6.82696L5.3643 6.36049ZM8.43379 6.82696L9.1143 6.36049L9.77274 6.82696L9.56799 5.99682L10.0968 5.47073H9.4238L9.11334 4.79325L8.84857 5.47073H8.05912L8.66353 5.99682L8.43379 6.82696ZM12.8643 6.36049L12.1838 6.82696L12.4136 5.99682L11.8091 5.47073H12.5985L12.8634 4.79325L13.1738 5.47073H13.8468L13.318 5.99682L13.5227 6.82696L12.8643 6.36049ZM0.933785 10.4936L1.6143 10.0271L2.27274 10.4936L2.06802 9.6635L2.59681 9.1374H1.92382L1.61334 8.45992L1.34857 9.1374H0.559113L1.16353 9.6635L0.933785 10.4936ZM5.3643 10.0271L4.68379 10.4936L4.91353 9.6635L4.30912 9.1374H5.09857L5.36334 8.45992L5.67382 9.1374H6.34681L5.81802 9.6635L6.02274 10.4936L5.3643 10.0271ZM8.43379 10.4936L9.1143 10.0271L9.77274 10.4936L9.56799 9.6635L10.0968 9.1374H9.4238L9.11334 8.45992L8.84857 9.1374H8.05912L8.66353 9.6635L8.43379 10.4936ZM12.8643 10.0271L12.1838 10.4936L12.4136 9.6635L11.8091 9.1374H12.5985L12.8634 8.45992L13.1738 9.1374H13.8468L13.318 9.6635L13.5227 10.4936L12.8643 10.0271ZM15.9338 3.16029L16.6143 2.69382L17.2727 3.16029L17.068 2.33015L17.5968 1.80407H16.9238L16.6134 1.12659L16.3485 1.80407H15.5591L16.1636 2.33015L15.9338 3.16029ZM16.6143 6.36049L15.9338 6.82696L16.1636 5.99682L15.5591 5.47073H16.3485L16.6134 4.79325L16.9238 5.47073H17.5968L17.068 5.99682L17.2727 6.82696L16.6143 6.36049ZM15.9338 10.4936L16.6143 10.0271L17.2727 10.4936L17.068 9.6635L17.5968 9.1374H16.9238L16.6134 8.45992L16.3485 9.1374H15.5591L16.1636 9.6635L15.9338 10.4936ZM3.4893 4.52715L2.80879 4.99363L3.03853 4.16349L2.43412 3.6374H3.22357L3.48834 2.95992L3.79882 3.6374H4.47181L3.94302 4.16349L4.14774 4.99363L3.4893 4.52715ZM6.55879 4.99363L7.2393 4.52715L7.89774 4.99363L7.69302 4.16349L8.22181 3.6374H7.54882L7.23835 2.95992L6.97357 3.6374H6.18412L6.78853 4.16349L6.55879 4.99363ZM10.9893 4.52715L10.3088 4.99363L10.5386 4.16349L9.93408 3.6374H10.7235L10.9884 2.95992L11.2988 3.6374H11.9718L11.443 4.16349L11.6477 4.99363L10.9893 4.52715ZM2.80879 8.66029L3.4893 8.19382L4.14774 8.66029L3.94302 7.83015L4.47181 7.30407H3.79882L3.48834 6.62659L3.22357 7.30407H2.43412L3.03853 7.83015L2.80879 8.66029ZM7.2393 8.19382L6.55879 8.66029L6.78853 7.83015L6.18412 7.30407H6.97357L7.23835 6.62659L7.54882 7.30407H8.22181L7.69302 7.83015L7.89774 8.66029L7.2393 8.19382ZM10.3088 8.66029L10.9893 8.19382L11.6477 8.66029L11.443 7.83015L11.9718 7.30407H11.2988L10.9884 6.62659L10.7235 7.30407H9.93408L10.5386 7.83015L10.3088 8.66029ZM14.7393 4.52715L14.0588 4.99363L14.2886 4.16349L13.6841 3.6374H14.4735L14.7384 2.95992L15.0488 3.6374H15.7218L15.193 4.16349L15.3977 4.99363L14.7393 4.52715ZM14.0588 8.66029L14.7393 8.19382L15.3977 8.66029L15.193 7.83015L15.7218 7.30407H15.0488L14.7384 6.62659L14.4735 7.30407H13.6841L14.2886 7.83015L14.0588 8.66029Z" fill="#F7FCFF"/>
</g>
</svg>
