<svg width="20" height="20" viewBox="0 0 20 20" fill="none" xmlns="http://www.w3.org/2000/svg">
<path fill-rule="evenodd" clip-rule="evenodd" d="M5.87722 0.0612207C6.94389 0.0123298 7.28389 0.0012207 10 0.0012207C12.7166 0.0012207 13.0561 0.0128843 14.1222 0.0612207C15.1872 0.109557 15.9145 0.279003 16.5505 0.526221C17.2177 0.777412 17.8221 1.17098 18.3216 1.67956C18.8303 2.17904 19.2239 2.78346 19.475 3.45067C19.7222 4.08678 19.8911 4.814 19.94 5.87844C19.9889 6.94511 20 7.28511 20 10.0012C20 12.7173 19.9884 13.0573 19.94 14.124C19.8916 15.1884 19.7222 15.9157 19.475 16.5518C19.2195 17.209 18.8772 17.7673 18.3216 18.3229C17.8222 18.8315 17.2177 19.2251 16.5505 19.4762C15.9145 19.7234 15.1872 19.8923 14.1228 19.9412C13.0561 19.9901 12.7161 20.0012 10 20.0012C7.28389 20.0012 6.94389 19.9896 5.87722 19.9412C4.81278 19.8929 4.08556 19.7234 3.44945 19.4762C2.79222 19.2207 2.23389 18.8784 1.67834 18.3229C1.16967 17.8234 0.776073 17.2189 0.525 16.5518C0.277782 15.9157 0.108891 15.1884 0.06 14.124C0.0111091 13.0573 0 12.7179 0 10.0012C0 7.28456 0.0116636 6.94511 0.06 5.879C0.108336 4.814 0.277782 4.08678 0.525 3.45067C0.776191 2.7835 1.16976 2.17911 1.67834 1.67956C2.17781 1.17089 2.78223 0.777293 3.44945 0.526221C4.08556 0.279003 4.81278 0.110112 5.87722 0.0612207ZM14.0411 1.86122C12.9866 1.81344 12.67 1.80288 10 1.80288C7.33 1.80288 7.01334 1.81344 5.95889 1.86122C4.98389 1.90567 4.45445 2.06844 4.10222 2.20567C3.63555 2.38678 3.30222 2.60344 2.95222 2.95344C2.60278 3.30344 2.38555 3.63678 2.20445 4.10344C2.06722 4.45567 1.90445 4.98511 1.86 5.96011C1.81222 7.01456 1.80166 7.33122 1.80166 10.0012C1.80166 12.6712 1.81222 12.9879 1.86 14.0423C1.90445 15.0173 2.06722 15.5468 2.20445 15.899C2.36465 16.3334 2.62017 16.7263 2.95222 17.049C3.27485 17.381 3.66783 17.6366 4.10222 17.7968C4.45445 17.934 4.98389 18.0968 5.95889 18.1412C7.01334 18.189 7.32945 18.1996 10 18.1996C12.6705 18.1996 12.9866 18.189 14.0411 18.1412C15.0161 18.0968 15.5455 17.934 15.8978 17.7968C16.3645 17.6157 16.6978 17.399 17.0478 17.049C17.3798 16.7264 17.6354 16.3334 17.7955 15.899C17.9328 15.5468 18.0955 15.0173 18.14 14.0423C18.1878 12.9879 18.1984 12.6712 18.1984 10.0012C18.1984 7.33122 18.1878 7.01456 18.14 5.96011C18.0955 4.98511 17.9328 4.45567 17.7955 4.10344C17.6145 3.63678 17.3978 3.30344 17.0478 2.95344C16.6978 2.604 16.3645 2.38678 15.8978 2.20567C15.5455 2.06844 15.0161 1.90567 14.0411 1.86122ZM8.72318 13.0839C9.128 13.2516 9.56182 13.3379 10 13.3379C10.885 13.3379 11.7336 12.9863 12.3594 12.3606C12.9852 11.7349 13.3367 10.8861 13.3367 10.0012C13.3367 9.11631 12.9852 8.26758 12.3594 7.64184C11.7336 7.01609 10.885 6.66455 10 6.66455C9.56182 6.66455 9.128 6.75086 8.72318 6.91854C8.31827 7.08622 7.95048 7.33199 7.64065 7.64184C7.33081 7.95168 7.08503 8.31949 6.91735 8.72431C6.74966 9.12913 6.66336 9.56304 6.66336 10.0012C6.66336 10.4394 6.74966 10.8733 6.91735 11.2781C7.08503 11.6829 7.33081 12.0508 7.64065 12.3606C7.95048 12.6704 8.31827 12.9162 8.72318 13.0839ZM6.3655 6.36668C7.32944 5.40275 8.63682 4.86121 10 4.86121C11.3633 4.86121 12.6706 5.40275 13.6345 6.36668C14.5985 7.33062 15.14 8.63804 15.14 10.0012C15.14 11.3644 14.5985 12.6718 13.6345 13.6358C12.6706 14.5997 11.3633 15.1412 10 15.1412C8.63682 15.1412 7.32944 14.5997 6.3655 13.6358C5.40156 12.6718 4.86003 11.3644 4.86003 10.0012C4.86003 8.63804 5.40156 7.33062 6.3655 6.36668ZM16.2797 5.62702C16.5075 5.39916 16.6355 5.09012 16.6355 4.76788C16.6355 4.44564 16.5075 4.1366 16.2797 3.90875C16.0518 3.68089 15.7428 3.55288 15.4205 3.55288C15.0984 3.55288 14.7893 3.68089 14.5615 3.90875C14.3335 4.1366 14.2055 4.44564 14.2055 4.76788C14.2055 5.09012 14.3335 5.39916 14.5615 5.62702C14.7893 5.85488 15.0984 5.98288 15.4205 5.98288C15.7428 5.98288 16.0518 5.85488 16.2797 5.62702Z" fill="white"/>
</svg>
