<svg width="45" height="58" viewBox="0 0 45 58" fill="none" xmlns="http://www.w3.org/2000/svg">
<path d="M22.4725 58L4.09527 53.3415L0 11.3981H45L40.9004 53.335L22.4725 58Z" fill="white" fill-opacity="0.05"/>
<path d="M37.3907 50.6646L40.8941 14.8277H22.5V54.4343L37.3907 50.6646Z" fill="white" fill-opacity="0.05"/>
<path d="M9.38829 30.3839L9.8932 35.5281H22.5V30.3839H9.38829Z" fill="white" fill-opacity="0.05"/>
<path d="M8.37376 19.9721L8.88587 25.1163H22.5V19.9721H8.37376Z" fill="white" fill-opacity="0.05"/>
<path d="M22.5 43.7439L22.4753 43.7499L16.2012 42.203L15.8002 38.1002H10.145L10.9342 46.1773L22.4741 49.1026L22.5 49.096V43.7439Z" fill="white" fill-opacity="0.05"/>
<path d="M10.5905 0H17.4136V2.60548H13.4438V5.21096H17.4136V7.81645H10.5905V0Z" fill="white" fill-opacity="0.05"/>
<path d="M18.7783 0H25.6015V2.26564H21.6316V2.71876H25.6015V7.92973H18.7783V5.55081H22.7481V5.09768H18.7783V0Z" fill="white" fill-opacity="0.05"/>
<path d="M26.9661 0H33.7893V2.26564H29.8194V2.71876H33.7893V7.92973H26.9661V5.55081H30.9359V5.09768H26.9661V0Z" fill="white" fill-opacity="0.05"/>
<path d="M35.5756 30.3841L36.5926 19.9721H22.4806V25.1163H30.4188L29.9062 30.3841H22.4806V35.5282H29.4176L28.7637 42.1998L22.4806 43.7484V49.1003L34.0296 46.1775L34.1143 45.3084L35.4381 31.7654L35.5756 30.3841Z" fill="white" fill-opacity="0.05"/>
</svg>
