<svg width="71" height="114" viewBox="0 0 71 114" fill="none" xmlns="http://www.w3.org/2000/svg">
<path d="M22.6529 88.146C22.6529 88.146 19.0094 90.6821 25.2475 91.537C32.8048 92.5723 36.6669 92.4251 44.991 90.5349C44.991 90.5349 47.1842 92.1781 50.2397 93.6029C31.5691 103.163 7.99138 93.0425 22.6529 88.146ZM20.3683 75.6697C20.3683 75.6697 16.2837 79.2839 22.5218 80.058C30.5956 81.0506 36.9688 81.1361 48.0028 78.5953C48.0028 78.5953 49.5285 80.4427 51.9244 81.4543C29.3599 89.3428 4.21672 82.0717 20.3683 75.6697ZM39.5992 54.4976C44.2003 60.8283 38.3913 66.5274 38.3913 66.5274C38.3913 66.5274 50.0689 59.3181 44.7049 50.2945C39.6945 41.8789 35.8523 37.6995 56.6527 23.2808C56.6527 23.2761 24.0078 33.0215 39.5992 54.4976ZM64.2894 97.3785C64.2894 97.3785 66.9873 100.033 61.3213 102.085C50.5457 105.989 16.4705 107.162 7.00997 102.242C3.6088 100.47 9.98996 98.0149 11.9925 97.502C14.0865 96.9606 15.2824 97.0603 15.2824 97.0603C11.4958 93.8736 -9.17735 103.315 4.78093 106.022C42.8454 113.398 74.1631 102.698 64.2894 97.3785ZM24.4052 62.7375C24.4052 62.7375 7.07354 67.6578 18.2704 69.4435C22.9946 70.1986 32.4194 70.0276 41.1964 69.149C48.3723 68.4271 55.5719 66.8836 55.5719 66.8836C55.5719 66.8836 53.0409 68.1754 51.2092 69.6714C33.6114 75.2043 -0.388364 72.6302 9.40191 66.9739C17.6744 62.1961 24.4052 62.7375 24.4052 62.7375ZM55.4925 83.5107C73.3843 72.3975 65.1119 61.7165 59.3386 63.1602C57.9281 63.5117 57.2924 63.8156 57.2924 63.8156C57.2924 63.8156 57.8169 62.8325 58.8221 62.4051C70.2454 57.6036 79.0304 76.5626 55.1349 84.0712C55.1349 84.0664 55.413 83.7767 55.4925 83.5107ZM44.7049 0C44.7049 0 54.6144 11.8446 35.308 30.0627C19.8279 44.6762 31.7797 53.0111 35.304 62.5286C26.2687 52.7784 19.6372 44.206 24.0833 36.2225C30.6155 24.4966 48.706 18.8165 44.7049 0ZM26.1614 113.621C43.3341 114.937 69.705 112.894 70.3289 103.182C70.3289 103.182 69.1289 106.863 56.1361 109.788C41.4825 113.084 23.3999 112.7 12.6799 110.586C12.6799 110.581 14.8771 112.757 26.1614 113.621Z" fill="white" fill-opacity="0.05"/>
<path d="M22.6529 88.146C22.6529 88.146 19.0094 90.6821 25.2475 91.537C32.8048 92.5723 36.6669 92.4251 44.991 90.5349C44.991 90.5349 47.1842 92.1781 50.2397 93.6029C31.5691 103.163 7.99138 93.0425 22.6529 88.146ZM20.3683 75.6697C20.3683 75.6697 16.2837 79.2839 22.5218 80.058C30.5956 81.0506 36.9688 81.1361 48.0028 78.5953C48.0028 78.5953 49.5285 80.4427 51.9244 81.4543C29.3599 89.3428 4.21672 82.0717 20.3683 75.6697ZM39.5992 54.4976C44.2003 60.8283 38.3913 66.5274 38.3913 66.5274C38.3913 66.5274 50.0689 59.3181 44.7049 50.2945C39.6945 41.8789 35.8523 37.6995 56.6527 23.2808C56.6527 23.2761 24.0078 33.0215 39.5992 54.4976ZM64.2894 97.3785C64.2894 97.3785 66.9873 100.033 61.3213 102.085C50.5457 105.989 16.4705 107.162 7.00997 102.242C3.6088 100.47 9.98996 98.0149 11.9925 97.502C14.0865 96.9606 15.2824 97.0603 15.2824 97.0603C11.4958 93.8736 -9.17735 103.315 4.78093 106.022C42.8454 113.398 74.1631 102.698 64.2894 97.3785ZM24.4052 62.7375C24.4052 62.7375 7.07354 67.6578 18.2704 69.4435C22.9946 70.1986 32.4194 70.0276 41.1964 69.149C48.3723 68.4271 55.5719 66.8836 55.5719 66.8836C55.5719 66.8836 53.0409 68.1754 51.2092 69.6714C33.6114 75.2043 -0.388364 72.6302 9.40191 66.9739C17.6744 62.1961 24.4052 62.7375 24.4052 62.7375ZM55.4925 83.5107C73.3843 72.3975 65.1119 61.7165 59.3386 63.1602C57.9281 63.5117 57.2924 63.8156 57.2924 63.8156C57.2924 63.8156 57.8169 62.8325 58.8221 62.4051C70.2454 57.6036 79.0304 76.5626 55.1349 84.0712C55.1349 84.0664 55.413 83.7767 55.4925 83.5107ZM44.7049 0C44.7049 0 54.6144 11.8446 35.308 30.0627C19.8279 44.6762 31.7797 53.0111 35.304 62.5286C26.2687 52.7784 19.6372 44.206 24.0833 36.2225C30.6155 24.4966 48.706 18.8165 44.7049 0ZM26.1614 113.621C43.3341 114.937 69.705 112.894 70.3289 103.182C70.3289 103.182 69.1289 106.863 56.1361 109.788C41.4825 113.084 23.3999 112.7 12.6799 110.586C12.6799 110.581 14.8771 112.757 26.1614 113.621Z" fill="white" fill-opacity="0.05"/>
</svg>
